$MeshFormat
2.2 0 8
$EndMeshFormat
$PhysicalNames
7
1 1 "outer_walls"
1 3 "rect_obstacle_boundary"
1 6 "bottom_wall"
1 7 "receiver_segment_0"
1 8 "receiver_segment_1"
1 9 "receiver_segment_2"
2 5 "domain"
$EndPhysicalNames
$Nodes
445
1 0 0 0
2 1 0 0
3 1 1 0
4 0 1 0
5 0.2 0 0
6 0.35 0 0
7 0.5 0 0
8 0.7 0 0
9 0.9 0 0
10 0.3 0.4 0
11 0.7 0.4 0
12 0.7 0.6 0
13 0.3 0.6 0
14 0.04999999999988328 0 0
15 0.09999999999973684 0 0
16 0.1499999999998671 0 0
17 0.5499999999998265 0 0
18 0.5999999999998263 0 0
19 0.6499999999999132 0 0
20 0.9500000000000866 0 0
21 1 0.04999999999989965 0
22 1 0.09999999999981467 0
23 1 0.1499999999997036 0
24 1 0.1999999999995579 0
25 1 0.2499999999994121 0
26 1 0.2999999999992664 0
27 1 0.3499999999991206 0
28 1 0.3999999999989749 0
29 1 0.4499999999988292 0
30 1 0.4999999999986943 0
31 1 0.5499999999988151 0
32 1 0.5999999999989468 0
33 1 0.6499999999990784 0
34 1 0.69999999999921 0
35 1 0.7499999999993417 0
36 1 0.7999999999994734 0
37 1 0.8499999999996051 0
38 1 0.8999999999997368 0
39 1 0.9499999999998684 0
40 0.9499999999997918 1 0
41 0.8999999999995836 1 0
42 0.8499999999996529 1 0
43 0.7999999999999998 1 0
44 0.7500000000003466 1 0
45 0.7000000000006934 1 0
46 0.6500000000010401 1 0
47 0.6000000000013869 1 0
48 0.5500000000017335 1 0
49 0.5000000000020587 1 0
50 0.4500000000018723 1 0
51 0.4000000000016644 1 0
52 0.3500000000014564 1 0
53 0.3000000000012483 1 0
54 0.2500000000010403 1 0
55 0.2000000000008322 1 0
56 0.1500000000006241 1 0
57 0.100000000000416 1 0
58 0.05000000000020799 1 0
59 0 0.9499999999997918 0
60 0 0.8999999999995836 0
61 0 0.8499999999996529 0
62 0 0.7999999999999998 0
63 0 0.7500000000003466 0
64 0 0.7000000000006934 0
65 0 0.6500000000010401 0
66 0 0.6000000000013869 0
67 0 0.5500000000017335 0
68 0 0.5000000000020587 0
69 0 0.4500000000018723 0
70 0 0.4000000000016644 0
71 0 0.3500000000014564 0
72 0 0.3000000000012483 0
73 0 0.2500000000010403 0
74 0 0.2000000000008322 0
75 0 0.1500000000006241 0
76 0 0.100000000000416 0
77 0 0.05000000000020799 0
78 0.3499999999999349 0.4 0
79 0.3999999999997831 0.4 0
80 0.4499999999996313 0.4 0
81 0.499999999999501 0.4 0
82 0.5499999999996311 0.4 0
83 0.5999999999997396 0.4 0
84 0.6499999999998698 0.4 0
85 0.7 0.4499999999998862 0
86 0.7 0.4999999999997614 0
87 0.7 0.5499999999998753 0
88 0.6500000000001003 0.6 0
89 0.6000000000002439 0.6 0
90 0.5500000000003877 0.6 0
91 0.5000000000005315 0.6 0
92 0.450000000000404 0.6 0
93 0.4000000000002657 0.6 0
94 0.3500000000001274 0.6 0
95 0.3 0.5500000000000217 0
96 0.3 0.5000000000002929 0
97 0.3 0.4500000000001518 0
98 0.7763010394302171 0.9613312256330193 0
99 0.2250000000009304 0.9601044518079966 0
100 0.6181328988229725 0.9553760303921854 0
101 0.9547479495827427 0.2309521729342506 0
102 0.4739305016319887 0.9556150460984442 0
103 0.5744005911702328 0.04453658955819235 0
104 0.03897499653569009 0.2329577374707126 0
105 0.474999999999592 0.3575778159403734 0
106 0.3798226806392681 0.6449789251602819 0
107 0.673150026720336 0.3572648699791304 0
108 0.9546702957783968 0.7742307488954434 0
109 0.0424183959712519 0.7750000000001483 0
110 0.569095669704867 0.6472062053366454 0
111 0.725382353719026 0.3567376039882675 0
112 0.048094270582164 0.6196768461323305 0
113 0.9472263111422372 0.4768927739943635 0
114 0.04330127018916183 0.4750000000019655 0
115 0.9554008107364942 0.6268144130388342 0
116 0.6970181773716481 0.3118945213565507 0
117 0.2566987298109162 0.5750000000000118 0
118 0.2564255782366772 0.6245268875952392 0
119 0.7440897807293038 0.523582541360309 0
120 0.2566976829148946 0.4250002436656979 0
121 0.2544677382690513 0.3749844810768298 0
122 0.3800892954424004 0.9544645600516639 0
123 0.4743620547578395 0.6442899756703204 0
124 0.67500000000005 0.6433012701891163 0
125 0.7249999999999373 0.6455341801260354 0
126 0.7005813670652886 0.6873103444660442 0
127 0.7500968945107572 0.6870926593823781 0
128 0.7251130435959394 0.7301034644160167 0
129 0.6756971021755775 0.7303907059884023 0
130 0.9557208860136328 0.3770140267713738 0
131 0.374987053668375 0.3591173336939789 0
132 0.04330127018940205 0.3250000000013523 0
133 0.7515961009947881 0.3122120383951905 0
134 0.1802864822773425 0.0561723980645543 0
135 0.8763830770369783 0.9524289314012693 0
136 0.04330127018909075 0.8749999999996383 0
137 0.5729209790782321 0.3574826869906691 0
138 0.7006122456646265 0.7730439817486399 0
139 0.6533074854185474 0.7722927461940461 0
140 0.7501208815432501 0.7732115065632789 0
141 0.21300540800719 0.399993141388856 0
142 0.2128537590037391 0.3498028744612192 0
143 0.2567313892957105 0.3249434584563289 0
144 0.2121297481171354 0.2981793189663559 0
145 0.7750161490849927 0.6459880182828694 0
146 0.7767978826291372 0.3577195264819841 0
147 0.7249288922030703 0.2641335206902837 0
148 0.6670968859454436 0.2653094694379625 0
149 0.8000188405991336 0.6871320182279309 0
150 0.2133510899842059 0.5999214404416939 0
151 0.2133437838956051 0.6499084934262083 0
152 0.2566987298108064 0.6749999999997875 0
153 0.2133885981014891 0.6999848951484389 0
154 0.2563303193035176 0.7256330301405605 0
155 0.2133345809503226 0.7501029875478793 0
156 0.2566268482809463 0.7751226696145346 0
157 0.2077864998662054 0.8054237329629594 0
158 0.8038513361756239 0.3138147644136376 0
159 0.2993471036287588 0.7511296982829481 0
160 0.2998792036830514 0.8002087279827729 0
161 0.3429597406300205 0.7755912717520361 0
162 0.2133894705642303 0.5499856752485623 0
163 0.4255172230847535 0.08605160841847732 0
164 0.261846572771652 0.2727747717325252 0
165 0.2117140289132587 0.2443462382053301 0
166 0.7255994092372876 0.8162050481926086 0
167 0.7751200484631623 0.8164572047878711 0
168 0.665477938268826 0.06267146588386457 0
169 0.9590873164942094 0.1279863807295619 0
170 0.1709672026063522 0.7250148023040263 0
171 0.170084709981771 0.5749841253114991 0
172 0.1700942873026386 0.5249967053419481 0
173 0.1700325021008699 0.3749831687185216 0
174 0.3432242158764265 0.8251333332890534 0
175 0.3865327763997444 0.8001207675067867 0
176 0.8250060300235149 0.6438371932944863 0
177 0.8500041451036037 0.6867801072041471 0
178 0.05377340640503062 0.1273333737967475 0
179 0.8277358609497669 0.3588351998584021 0
180 0.8010839729016772 0.4017301333534973 0
181 0.8550145049894717 0.3156941214574699 0
182 0.8312675254674381 0.2705162106219292 0
183 0.2620204000588997 0.2131100774582387 0
184 0.1206637172649174 0.9551851937519997 0
185 0.9527385293491479 0.8693633711190191 0
186 0.3170809962666816 0.2466206863658206 0
187 0.2999764463534079 0.8500407215798403 0
188 0.1643756128607253 0.2729926672737581 0
189 0.1625764829251363 0.2184152397731877 0
190 0.1267888276687095 0.5499955300494811 0
191 0.8515114787578664 0.4032156556431518 0
192 0.8251815234899671 0.4459337411955059 0
193 0.38502630279736 0.749757934848499 0
194 0.4291899240156614 0.7742184556687766 0
195 0.4293147658508866 0.8256242695760562 0
196 0.4729879255453911 0.7999737875408109 0
197 0.4726103541709675 0.7491040458112123 0
198 0.5163710373131586 0.7748463055587513 0
199 0.5164476061386025 0.8249700155165887 0
200 0.6952653829442368 0.2124461695303331 0
201 0.6350892896276225 0.2144460456576368 0
202 0.6298500166694546 0.7289426038337772 0
203 0.8250038309502161 0.7300216513466884 0
204 0.1699926236016936 0.425000401114859 0
205 0.1266800789220451 0.4000061077391299 0
206 0.7501199096165654 0.8597492129828225 0
207 0.8000399930129395 0.8597896954163927 0
208 0.6999988014305789 0.8578375419086308 0
209 0.8250266735789903 0.8164951722996132 0
210 0.8494131083420127 0.8594575133550487 0
211 0.7927035218689916 0.5978454370616993 0
212 0.8487880326113717 0.5997286925987139 0
213 0.8298187467642461 0.5578901109662789 0
214 0.8770426471311519 0.558734122324384 0
215 0.516384677576331 0.7248250585617775 0
216 0.7542772791345838 0.2136723156824857 0
217 0.1279687360551953 0.597953617173279 0
218 0.1276564720435903 0.5000114260318007 0
219 0.5594999386559865 0.7999693868460019 0
220 0.5597465499206606 0.8499899003937739 0
221 0.1266936516569765 0.3499778979250167 0
222 0.8750013293420156 0.7299530451683363 0
223 0.609481038878908 0.2659682512988222 0
224 0.5763225469296098 0.2180568801550207 0
225 0.6022044276720694 0.1640699792622531 0
226 0.5463916002004821 0.2742529614835812 0
227 0.5130789012441832 0.2192706329954654 0
228 0.874906630319733 0.8164461365413864 0
229 0.5164863816089691 0.8749933193182924 0
230 0.3433012701890135 0.8749999999999162 0
231 0.2991395766535047 0.9072705423001594 0
232 0.2567190837770192 0.8741291835081471 0
233 0.5592759658224319 0.8990997436638088 0
234 0.6005766785989695 0.8738895651153561 0
235 0.2133998235450481 0.4999959057076239 0
236 0.873862287438786 0.4452074845494958 0
237 0.88265814498996 0.274450569960991 0
238 0.8634528426862511 0.2339821428918032 0
239 0.07523000439519925 0.04031173884515246 0
240 0.8989529758692913 0.6872453670585009 0
241 0.7601277984830878 0.07630510672884068 0
242 0.3254314336349877 0.1817423863334607 0
243 0.3827522173574334 0.2288117577383292 0
244 0.2611994543423923 0.146232385722467 0
245 0.7250197851744069 0.8999515111207815 0
246 0.8248206079414208 0.9015907671202875 0
247 0.7754720414204488 0.4426207159597298 0
248 0.9061099234529019 0.3180557799454875 0
249 0.4793706867289746 0.2702300498976489 0
250 0.1198264384484879 0.2469175117132704 0
251 0.1163467025552173 0.1930805903815867 0
252 0.1599269523080923 0.1629455816149455 0
253 0.6784030866531121 0.9028066924373841 0
254 0.7913204352966845 0.4926297798837581 0
255 0.08348725405604339 0.5749999301598228 0
256 0.08328799367240008 0.3750089145853823 0
257 0.7254483863393502 0.1572432854201192 0
258 0.7989970466175578 0.1578916284103618 0
259 0.2530750769503548 0.07376758319641498 0
260 0.08444571562932186 0.4333480299896748 0
261 0.9078303671002113 0.4026279182999376 0
262 0.1099074327494587 0.1367772586216995 0
263 0.9086471811316719 0.601987922686263 0
264 0.9208797881773343 0.5556721200811985 0
265 0.9007030460247277 0.5146302766935582 0
266 0.3640639553477188 0.2844316353174492 0
267 0.8604105383503788 0.1005686370062708 0
268 0.8984354038291787 0.8620067244542204 0
269 0.4729921469777976 0.6973219398479237 0
270 0.9241884919891001 0.7293727970428635 0
271 0.9304656156910976 0.2774662672702763 0
272 0.5187211205266187 0.6746973166562509 0
273 0.5598076211353389 0.7000000000002322 0
274 0.4268187643399268 0.6730253713456716 0
275 0.7023177353111335 0.9455341581803729 0
276 0.6424148192011498 0.3125375870372729 0
277 0.9244894297967395 0.8200420102943784 0
278 0.9171421715028216 0.9092296257540711 0
279 0.5174474465116808 0.924204830160732 0
280 0.4731742591513293 0.902323177078828 0
281 0.4284671260879394 0.9285611647473206 0
282 0.4271531927979304 0.8794063942809679 0
283 0.951965858615932 0.6807662865688374 0
284 0.604172708198609 0.6881731175247322 0
285 0.3087474611393928 0.3088782701722801 0
286 0.5647241610666316 0.9514098692215875 0
287 0.8646005323414848 0.1542831832497613 0
288 0.4280177838584194 0.7239370135750021 0
289 0.3824342864426307 0.6995255760797281 0
290 0.339449710122948 0.6765818202143192 0
291 0.3858015262718551 0.9077128939018679 0
292 0.1236723212385034 0.3000145975950638 0
293 0.0757358038116962 0.2758429537799627 0
294 0.8526846331541776 0.4883990859765555 0
295 0.08466673398898539 0.5166793152196184 0
296 0.1702725981391706 0.6246284872535979 0
297 0.1267905728804508 0.6500023697031668 0
298 0.7445655526572774 0.5724709063405375 0
299 0.04233860225281069 0.9247881315356452 0
300 0.09074138626596719 0.9077693939983118 0
301 0.08729234802608439 0.8512948989994225 0
302 0.1299038105673214 0.8749999999994061 0
303 0.1299038105671688 0.8249999999995011 0
304 0.1761349533289328 0.8511457423114464 0
305 0.1728814821778179 0.9008692609463157 0
306 0.5240448143246204 0.3584195134070973 0
307 0.1734309808583017 0.9540307542069747 0
308 0.5568858114767139 0.7499401251612092 0
309 0.6011509275238809 0.8265689372643696 0
310 0.6474466724287332 0.8551647457069056 0
311 0.6179757058877109 0.03981703904014129 0
312 0.600745541133211 0.08455121950780868 0
313 0.5402877474280308 0.1024900336279804 0
314 0.7750000179628659 0.9007902577558229 0
315 0.825116449589789 0.9581666737824672 0
316 0.3250000000013736 0.95669872981061 0
317 0.2748565961098589 0.9572455821625365 0
318 0.1678801103811071 0.7718370783291354 0
319 0.1268481601128389 0.744438129921303 0
320 0.3866025403783249 0.8499999999998971 0
321 0.7750420822855193 0.7300637531017357 0
322 0.04321686021448824 0.6741128076893862 0
323 0.8749999999997655 0.6433012701891145 0
324 0.04326909242741062 0.8252158164997856 0
325 0.8000266595934018 0.773224118538545 0
326 0.256655397159669 0.8254187955481408 0
327 0.4725940218488514 0.851215160551924 0
328 0.08445617279653791 0.8023751981799137 0
329 0.8499999999994544 0.7732050807566133 0
330 0.9005426962042399 0.7738749697831701 0
331 0.04225720744924442 0.724852134615269 0
332 0.08660269343809482 0.7000000000006932 0
333 0.1711424979159907 0.6749231835831001 0
334 0.2566981862581139 0.5249969301594557 0
335 0.9551014178040165 0.4260891198437181 0
336 0.9547732684387349 0.3221247274471743 0
337 0.2567002375278986 0.4749991877207256 0
338 0.213316617628789 0.4499992830741663 0
339 0.1701931445014249 0.4750013123012427 0
340 0.1279557885167422 0.4514060470415753 0
341 0.8779509850231061 0.3606212429924547 0
342 0.7525885977603078 0.3992678970504467 0
343 0.04337616429145442 0.1832285500727945 0
344 0.9562128885236802 0.1766418699041558 0
345 0.9003287332638045 0.1971742776481909 0
346 0.124999999999802 0.04330127018917496 0
347 0.4249978422777999 0.3584448819742348 0
348 0.1682929324963249 0.3243250874899891 0
349 0.9249999999996877 0.9577174470569553 0
350 0.4473562876977581 0.2195557631641951 0
351 0.7789098733630349 0.2666378362961341 0
352 0.6626953871537488 0.1639973900286699 0
353 0.6014568548895478 0.7750000000002337 0
354 0.9350915629786449 0.06671782082047373 0
355 0.3411692570163976 0.7260665978122774 0
356 0.326229581456595 0.3570741713747141 0
357 0.07455128795770731 0.9584064988183696 0
358 0.9564740209804365 0.5262541923619757 0
359 0.2091170793471869 0.1880382943704375 0
360 0.2977714059581609 0.6527874330060648 0
361 0.677863328216441 0.8148532076289849 0
362 0.741385642750449 0.4752968468237708 0
363 0.4816756221624243 0.1500113143841489 0
364 0.04156018481343918 0.07446636756117689 0
365 0.6216106320997857 0.3565050953986187 0
366 0.6534882023919018 0.6886164549681334 0
367 0.6252091167019267 0.643042060290602 0
368 0.9602913109950912 0.9250005705115912 0
369 0.8699503724953698 0.9020913252784419 0
370 0.2984610876400982 0.7011997632426594 0
371 0.3383803813421964 0.1083761911593107 0
372 0.449794310039655 0.3169045318366546 0
373 0.2226201958094751 0.849836304488766 0
374 0.08277629456600732 0.7529256748554082 0
375 0.1364702253907455 0.6988756971024578 0
376 0.07905445983537579 0.6513060032572349 0
377 0.0339162816424474 0.573935355259434 0
378 0.04006800719694155 0.5298350715058552 0
379 0.08876669640237761 0.4750690050727446 0
380 0.04148782256811912 0.4180594907636866 0
381 0.03361541728598424 0.3736136810707084 0
382 0.09383304762753643 0.08825221458859631 0
383 0.2452533835762758 0.9199405516770467 0
384 0.7876172398634297 0.5437999385607746 0
385 0.1456269114270783 0.103420272756867 0
386 0.5955256414648584 0.9158815425511775 0
387 0.9159872066212373 0.4456267680813817 0
388 0.5911779675993877 0.31174542838464 0
389 0.09053820811379565 0.3251688727773556 0
390 0.9179933652706309 0.64802305190831 0
391 0.5474297805561444 0.1636100973507215 0
392 0.8075381062027044 0.2254781679732782 0
393 0.9592328089396134 0.5799135626648368 0
394 0.2145161011094884 0.8909604551650805 0
395 0.4001855275465923 0.1624248368663203 0
396 0.3453606634290818 0.9191647740933737 0
397 0.530029407886602 0.04734277104388122 0
398 0.9662563942423221 0.8241717296139868 0
399 0.5250000000004593 0.6338142804951672 0
400 0.966506350945773 0.7249999999998898 0
401 0.5034915530274313 0.3157203890715651 0
402 0.1349278579254164 0.9162980947156738 0
403 0.9204770860057174 0.3560887390912856 0
404 0.5476053828460307 0.3235241958675105 0
405 0.2015386594420745 0.1217627526209477 0
406 0.5217816306471827 0.9657096154317296 0
407 0.03188161478225017 0.2762572416080864 0
408 0.6340260411259756 0.9110211686536989 0
409 0.3971886238968907 0.3202729483605109 0
410 0.4198904376221322 0.2741859881009396 0
411 0.4250000000003348 0.6309350218101702 0
412 0.4250000000017682 0.9690649781906157 0
413 0.9126219286587004 0.137228694893069 0
414 0.7357823195955845 0.9660538032749193 0
415 0.6639772545252841 0.9591629203734935 0
416 0.08259960512830342 0.2198555943099929 0
417 0.3362560191018664 0.6368026045309081 0
418 0.7338892563862411 0.4334370919667667 0
419 0.03660254037858077 0.9633974596214192 0
420 0.748702573837821 0.61287207632594 0
421 0.6381329005628834 0.8099128601986831 0
422 0.9636962652877772 0.9636962652877983 0
423 0.9063306572427712 0.2428050861411024 0
424 0.03634796322786402 0.03634796322795269 0
425 0.6309953252699456 0.1261984130710392 0
426 0.09184910441890801 0.6158246052731329 0
427 0.824009028684521 0.5214827670858958 0
428 0.2044402782463427 0.9259377768777175 0
429 0.1252177786483457 0.7857016299354929 0
430 0.1658493649048112 0.812740473580211 0
431 0.4955020001123622 0.07717914549489757 0
432 0.5805259568372143 0.1280633185969605 0
433 0.287299334447281 0.3508202786281527 0
434 0.5887567885552314 0.7262431375016359 0
435 0.9698986698030043 0.275565629351756 0
436 0.08265964254707366 0.1685637909365321 0
437 0.8002063524872901 0.9302895374324405 0
438 0.8409666973383314 0.1925391310171474 0
439 0.7512438137720845 0.9317889499316694 0
440 0.8472134974774788 0.9299863593198769 0
441 0.8980926968762332 0.474151277859071 0
442 0.6889489671029917 0.1172831322265067 0
443 0.3498912508155123 0.326507801618621 0
444 0.8573523254924228 0.5272180290186994 0
445 0.9712728907446828 0.02917945520509334 0
$EndNodes
$Elements
893
1 1 2 6 1 1 14
2 1 2 6 1 14 15
3 1 2 6 1 15 16
4 1 2 6 1 16 5
5 1 2 6 2 5 6
6 1 2 7 2 5 6
7 1 2 6 3 6 7
8 1 2 8 3 6 7
9 1 2 6 4 7 17
10 1 2 6 4 17 18
11 1 2 6 4 18 19
12 1 2 6 4 19 8
13 1 2 6 5 8 9
14 1 2 9 5 8 9
15 1 2 6 6 9 20
16 1 2 6 6 20 2
17 1 2 1 7 2 21
18 1 2 1 7 21 22
19 1 2 1 7 22 23
20 1 2 1 7 23 24
21 1 2 1 7 24 25
22 1 2 1 7 25 26
23 1 2 1 7 26 27
24 1 2 1 7 27 28
25 1 2 1 7 28 29
26 1 2 1 7 29 30
27 1 2 1 7 30 31
28 1 2 1 7 31 32
29 1 2 1 7 32 33
30 1 2 1 7 33 34
31 1 2 1 7 34 35
32 1 2 1 7 35 36
33 1 2 1 7 36 37
34 1 2 1 7 37 38
35 1 2 1 7 38 39
36 1 2 1 7 39 3
37 1 2 1 8 3 40
38 1 2 1 8 40 41
39 1 2 1 8 41 42
40 1 2 1 8 42 43
41 1 2 1 8 43 44
42 1 2 1 8 44 45
43 1 2 1 8 45 46
44 1 2 1 8 46 47
45 1 2 1 8 47 48
46 1 2 1 8 48 49
47 1 2 1 8 49 50
48 1 2 1 8 50 51
49 1 2 1 8 51 52
50 1 2 1 8 52 53
51 1 2 1 8 53 54
52 1 2 1 8 54 55
53 1 2 1 8 55 56
54 1 2 1 8 56 57
55 1 2 1 8 57 58
56 1 2 1 8 58 4
57 1 2 1 9 4 59
58 1 2 1 9 59 60
59 1 2 1 9 60 61
60 1 2 1 9 61 62
61 1 2 1 9 62 63
62 1 2 1 9 63 64
63 1 2 1 9 64 65
64 1 2 1 9 65 66
65 1 2 1 9 66 67
66 1 2 1 9 67 68
67 1 2 1 9 68 69
68 1 2 1 9 69 70
69 1 2 1 9 70 71
70 1 2 1 9 71 72
71 1 2 1 9 72 73
72 1 2 1 9 73 74
73 1 2 1 9 74 75
74 1 2 1 9 75 76
75 1 2 1 9 76 77
76 1 2 1 9 77 1
77 1 2 3 10 10 78
78 1 2 3 10 78 79
79 1 2 3 10 79 80
80 1 2 3 10 80 81
81 1 2 3 10 81 82
82 1 2 3 10 82 83
83 1 2 3 10 83 84
84 1 2 3 10 84 11
85 1 2 3 11 11 85
86 1 2 3 11 85 86
87 1 2 3 11 86 87
88 1 2 3 11 87 12
89 1 2 3 12 12 88
90 1 2 3 12 88 89
91 1 2 3 12 89 90
92 1 2 3 12 90 91
93 1 2 3 12 91 92
94 1 2 3 12 92 93
95 1 2 3 12 93 94
96 1 2 3 12 94 13
97 1 2 3 13 13 95
98 1 2 3 13 95 96
99 1 2 3 13 96 97
100 1 2 3 13 97 10
101 2 2 5 1 100 47 286
102 2 2 5 1 408 253 415
103 2 2 5 1 100 408 415
104 2 2 5 1 300 184 357
105 2 2 5 1 265 113 358
106 2 2 5 1 119 254 384
107 2 2 5 1 21 22 354
108 2 2 5 1 257 241 258
109 2 2 5 1 272 110 273
110 2 2 5 1 185 268 277
111 2 2 5 1 184 300 402
112 2 2 5 1 113 265 441
113 2 2 5 1 106 274 289
114 2 2 5 1 287 267 413
115 2 2 5 1 254 119 362
116 2 2 5 1 115 33 283
117 2 2 5 1 231 316 317
118 2 2 5 1 255 377 378
119 2 2 5 1 295 255 378
120 2 2 5 1 256 380 381
121 2 2 5 1 256 260 380
122 2 2 5 1 391 313 432
123 2 2 5 1 267 354 413
124 2 2 5 1 115 263 393
125 2 2 5 1 261 130 335
126 2 2 5 1 110 272 399
127 2 2 5 1 185 277 398
128 2 2 5 1 100 286 386
129 2 2 5 1 178 364 382
130 2 2 5 1 278 135 369
131 2 2 5 1 47 48 286
132 2 2 5 1 262 178 382
133 2 2 5 1 241 257 442
134 2 2 5 1 363 313 391
135 2 2 5 1 135 278 349
136 2 2 5 1 304 157 373
137 2 2 5 1 332 319 374
138 2 2 5 1 319 332 375
139 2 2 5 1 255 112 377
140 2 2 5 1 332 297 375
141 2 2 5 1 297 332 376
142 2 2 5 1 114 295 378
143 2 2 5 1 295 114 379
144 2 2 5 1 258 241 267
145 2 2 5 1 114 260 379
146 2 2 5 1 260 114 380
147 2 2 5 1 132 256 381
148 2 2 5 1 112 255 426
149 2 2 5 1 157 304 430
150 2 2 5 1 33 34 283
151 2 2 5 1 384 254 427
152 2 2 5 1 208 253 310
153 2 2 5 1 385 134 405
154 2 2 5 1 256 132 389
155 2 2 5 1 281 122 291
156 2 2 5 1 134 259 405
157 2 2 5 1 263 264 393
158 2 2 5 1 231 317 383
159 2 2 5 1 211 298 384
160 2 2 5 1 243 242 395
161 2 2 5 1 268 185 278
162 2 2 5 1 21 354 445
163 2 2 5 1 22 169 354
164 2 2 5 1 259 244 405
165 2 2 5 1 130 261 403
166 2 2 5 1 115 283 390
167 2 2 5 1 263 115 390
168 2 2 5 1 270 108 330
169 2 2 5 1 242 371 395
170 2 2 5 1 291 230 320
171 2 2 5 1 7 397 431
172 2 2 5 1 274 106 411
173 2 2 5 1 122 281 412
174 2 2 5 1 358 31 393
175 2 2 5 1 106 289 290
176 2 2 5 1 298 211 420
177 2 2 5 1 143 164 285
178 2 2 5 1 273 110 284
179 2 2 5 1 316 231 396
180 2 2 5 1 280 102 281
181 2 2 5 1 123 269 274
182 2 2 5 1 354 169 413
183 2 2 5 1 108 277 330
184 2 2 5 1 269 123 272
185 2 2 5 1 279 102 280
186 2 2 5 1 197 194 288
187 2 2 5 1 282 195 327
188 2 2 5 1 305 304 394
189 2 2 5 1 274 288 289
190 2 2 5 1 282 291 320
191 2 2 5 1 387 113 441
192 2 2 5 1 382 346 385
193 2 2 5 1 116 107 276
194 2 2 5 1 299 300 357
195 2 2 5 1 264 265 358
196 2 2 5 1 253 275 415
197 2 2 5 1 178 262 436
198 2 2 5 1 305 307 402
199 2 2 5 1 124 366 367
200 2 2 5 1 310 253 408
201 2 2 5 1 132 293 389
202 2 2 5 1 152 360 370
203 2 2 5 1 247 254 362
204 2 2 5 1 304 373 394
205 2 2 5 1 312 168 425
206 2 2 5 1 148 116 276
207 2 2 5 1 186 243 266
208 2 2 5 1 104 343 416
209 2 2 5 1 293 104 416
210 2 2 5 1 221 292 348
211 2 2 5 1 164 186 285
212 2 2 5 1 292 188 348
213 2 2 5 1 186 266 285
214 2 2 5 1 261 335 387
215 2 2 5 1 264 358 393
216 2 2 5 1 280 282 327
217 2 2 5 1 269 197 288
218 2 2 5 1 194 193 288
219 2 2 5 1 201 148 223
220 2 2 5 1 313 363 431
221 2 2 5 1 104 293 407
222 2 2 5 1 248 271 336
223 2 2 5 1 195 282 320
224 2 2 5 1 345 238 438
225 2 2 5 1 416 343 436
226 2 2 5 1 364 239 382
227 2 2 5 1 311 168 312
228 2 2 5 1 258 267 287
229 2 2 5 1 223 148 276
230 2 2 5 1 165 144 188
231 2 2 5 1 249 226 401
232 2 2 5 1 189 188 250
233 2 2 5 1 366 284 367
234 2 2 5 1 401 226 404
235 2 2 5 1 280 281 282
236 2 2 5 1 267 9 354
237 2 2 5 1 360 290 370
238 2 2 5 1 208 310 361
239 2 2 5 1 293 132 407
240 2 2 5 1 111 133 146
241 2 2 5 1 274 269 288
242 2 2 5 1 180 247 342
243 2 2 5 1 307 184 402
244 2 2 5 1 250 188 292
245 2 2 5 1 146 158 179
246 2 2 5 1 181 237 248
247 2 2 5 1 111 146 342
248 2 2 5 1 188 144 348
249 2 2 5 1 146 180 342
250 2 2 5 1 146 179 180
251 2 2 5 1 181 248 341
252 2 2 5 1 290 289 355
253 2 2 5 1 100 386 408
254 2 2 5 1 365 137 388
255 2 2 5 1 248 237 271
256 2 2 5 1 250 292 293
257 2 2 5 1 282 281 291
258 2 2 5 1 216 258 392
259 2 2 5 1 179 158 181
260 2 2 5 1 108 270 400
261 2 2 5 1 180 179 191
262 2 2 5 1 146 133 158
263 2 2 5 1 288 193 289
264 2 2 5 1 293 292 389
265 2 2 5 1 179 181 341
266 2 2 5 1 180 191 192
267 2 2 5 1 192 191 236
268 2 2 5 1 180 192 247
269 2 2 5 1 276 107 365
270 2 2 5 1 247 192 254
271 2 2 5 1 244 259 371
272 2 2 5 1 192 236 294
273 2 2 5 1 256 205 260
274 2 2 5 1 236 191 261
275 2 2 5 1 254 192 294
276 2 2 5 1 204 339 340
277 2 2 5 1 339 218 340
278 2 2 5 1 173 141 204
279 2 2 5 1 204 141 338
280 2 2 5 1 212 214 263
281 2 2 5 1 150 151 296
282 2 2 5 1 190 255 295
283 2 2 5 1 263 214 264
284 2 2 5 1 171 150 296
285 2 2 5 1 212 263 323
286 2 2 5 1 173 204 205
287 2 2 5 1 190 171 217
288 2 2 5 1 190 217 255
289 2 2 5 1 297 296 333
290 2 2 5 1 218 190 295
291 2 2 5 1 172 171 190
292 2 2 5 1 217 296 297
293 2 2 5 1 217 171 296
294 2 2 5 1 68 69 114
295 2 2 5 1 49 50 102
296 2 2 5 1 60 136 299
297 2 2 5 1 95 13 117
298 2 2 5 1 11 84 107
299 2 2 5 1 299 136 300
300 2 2 5 1 59 60 299
301 2 2 5 1 41 42 135
302 2 2 5 1 92 91 123
303 2 2 5 1 10 97 120
304 2 2 5 1 60 61 136
305 2 2 5 1 215 273 308
306 2 2 5 1 87 86 119
307 2 2 5 1 99 55 307
308 2 2 5 1 279 233 286
309 2 2 5 1 42 43 315
310 2 2 5 1 56 57 184
311 2 2 5 1 207 246 314
312 2 2 5 1 37 38 185
313 2 2 5 1 17 18 103
314 2 2 5 1 135 42 315
315 2 2 5 1 54 99 317
316 2 2 5 1 56 184 307
317 2 2 5 1 43 98 315
318 2 2 5 1 301 136 324
319 2 2 5 1 199 219 220
320 2 2 5 1 300 136 301
321 2 2 5 1 198 215 308
322 2 2 5 1 233 220 234
323 2 2 5 1 117 118 150
324 2 2 5 1 215 272 273
325 2 2 5 1 166 206 208
326 2 2 5 1 170 318 319
327 2 2 5 1 126 128 129
328 2 2 5 1 208 206 245
329 2 2 5 1 199 198 219
330 2 2 5 1 229 220 233
331 2 2 5 1 149 203 321
332 2 2 5 1 35 36 108
333 2 2 5 1 166 167 206
334 2 2 5 1 153 155 170
335 2 2 5 1 129 128 138
336 2 2 5 1 196 197 198
337 2 2 5 1 253 245 275
338 2 2 5 1 196 198 199
339 2 2 5 1 195 194 196
340 2 2 5 1 198 197 215
341 2 2 5 1 208 245 253
342 2 2 5 1 219 198 308
343 2 2 5 1 136 61 324
344 2 2 5 1 220 219 309
345 2 2 5 1 51 52 122
346 2 2 5 1 122 52 316
347 2 2 5 1 301 324 328
348 2 2 5 1 175 194 195
349 2 2 5 1 196 194 197
350 2 2 5 1 316 53 317
351 2 2 5 1 138 140 166
352 2 2 5 1 88 12 124
353 2 2 5 1 234 309 310
354 2 2 5 1 53 54 317
355 2 2 5 1 126 127 128
356 2 2 5 1 207 210 246
357 2 2 5 1 175 193 194
358 2 2 5 1 32 33 115
359 2 2 5 1 94 93 106
360 2 2 5 1 129 138 139
361 2 2 5 1 215 269 272
362 2 2 5 1 55 56 307
363 2 2 5 1 54 55 99
364 2 2 5 1 170 155 318
365 2 2 5 1 90 89 110
366 2 2 5 1 52 53 316
367 2 2 5 1 174 161 175
368 2 2 5 1 199 220 229
369 2 2 5 1 206 207 314
370 2 2 5 1 245 206 314
371 2 2 5 1 149 177 203
372 2 2 5 1 234 220 309
373 2 2 5 1 175 161 193
374 2 2 5 1 124 125 126
375 2 2 5 1 81 80 105
376 2 2 5 1 206 167 207
377 2 2 5 1 166 140 167
378 2 2 5 1 29 30 113
379 2 2 5 1 229 233 279
380 2 2 5 1 230 174 320
381 2 2 5 1 129 139 202
382 2 2 5 1 187 231 232
383 2 2 5 1 138 128 140
384 2 2 5 1 215 197 269
385 2 2 5 1 153 154 155
386 2 2 5 1 157 156 326
387 2 2 5 1 155 157 318
388 2 2 5 1 302 301 303
389 2 2 5 1 150 118 151
390 2 2 5 1 46 47 100
391 2 2 5 1 203 177 222
392 2 2 5 1 124 12 125
393 2 2 5 1 151 152 153
394 2 2 5 1 324 109 328
395 2 2 5 1 126 125 127
396 2 2 5 1 195 196 327
397 2 2 5 1 160 161 174
398 2 2 5 1 43 44 98
399 2 2 5 1 174 175 320
400 2 2 5 1 175 195 320
401 2 2 5 1 127 149 321
402 2 2 5 1 156 160 326
403 2 2 5 1 160 159 161
404 2 2 5 1 128 127 321
405 2 2 5 1 187 232 326
406 2 2 5 1 117 13 118
407 2 2 5 1 65 66 112
408 2 2 5 1 187 174 230
409 2 2 5 1 199 229 327
410 2 2 5 1 155 156 157
411 2 2 5 1 160 174 187
412 2 2 5 1 321 203 325
413 2 2 5 1 153 152 154
414 2 2 5 1 127 145 149
415 2 2 5 1 149 176 177
416 2 2 5 1 187 230 231
417 2 2 5 1 222 240 270
418 2 2 5 1 127 125 145
419 2 2 5 1 207 209 210
420 2 2 5 1 222 177 240
421 2 2 5 1 300 301 302
422 2 2 5 1 149 145 176
423 2 2 5 1 207 167 209
424 2 2 5 1 155 154 156
425 2 2 5 1 302 303 304
426 2 2 5 1 140 128 321
427 2 2 5 1 196 199 327
428 2 2 5 1 62 63 109
429 2 2 5 1 270 240 283
430 2 2 5 1 229 280 327
431 2 2 5 1 151 118 152
432 2 2 5 1 210 228 268
433 2 2 5 1 229 279 280
434 2 2 5 1 61 62 324
435 2 2 5 1 156 159 160
436 2 2 5 1 210 209 228
437 2 2 5 1 167 140 325
438 2 2 5 1 268 228 277
439 2 2 5 1 160 187 326
440 2 2 5 1 203 222 329
441 2 2 5 1 156 154 159
442 2 2 5 1 302 304 305
443 2 2 5 1 209 167 325
444 2 2 5 1 140 321 325
445 2 2 5 1 62 109 324
446 2 2 5 1 303 301 328
447 2 2 5 1 222 270 330
448 2 2 5 1 329 222 330
449 2 2 5 1 209 325 329
450 2 2 5 1 325 203 329
451 2 2 5 1 228 209 329
452 2 2 5 1 228 329 330
453 2 2 5 1 277 228 330
454 2 2 5 1 63 64 331
455 2 2 5 1 109 63 331
456 2 2 5 1 162 172 235
457 2 2 5 1 64 65 322
458 2 2 5 1 65 112 322
459 2 2 5 1 64 322 331
460 2 2 5 1 331 322 332
461 2 2 5 1 296 151 333
462 2 2 5 1 172 190 218
463 2 2 5 1 12 87 298
464 2 2 5 1 87 119 298
465 2 2 5 1 177 176 323
466 2 2 5 1 240 177 323
467 2 2 5 1 151 153 333
468 2 2 5 1 176 212 323
469 2 2 5 1 153 170 333
470 2 2 5 1 95 117 334
471 2 2 5 1 96 95 334
472 2 2 5 1 176 211 212
473 2 2 5 1 176 145 211
474 2 2 5 1 162 171 172
475 2 2 5 1 120 97 337
476 2 2 5 1 162 150 171
477 2 2 5 1 29 113 335
478 2 2 5 1 28 29 335
479 2 2 5 1 117 150 162
480 2 2 5 1 97 96 337
481 2 2 5 1 162 235 334
482 2 2 5 1 96 334 337
483 2 2 5 1 117 162 334
484 2 2 5 1 27 28 130
485 2 2 5 1 334 235 337
486 2 2 5 1 212 213 214
487 2 2 5 1 130 28 335
488 2 2 5 1 141 120 338
489 2 2 5 1 205 204 340
490 2 2 5 1 204 338 339
491 2 2 5 1 120 337 338
492 2 2 5 1 142 141 173
493 2 2 5 1 264 214 265
494 2 2 5 1 212 211 213
495 2 2 5 1 172 218 339
496 2 2 5 1 337 235 338
497 2 2 5 1 121 120 141
498 2 2 5 1 260 205 340
499 2 2 5 1 235 172 339
500 2 2 5 1 338 235 339
501 2 2 5 1 10 120 121
502 2 2 5 1 221 205 256
503 2 2 5 1 11 107 111
504 2 2 5 1 71 72 132
505 2 2 5 1 121 141 142
506 2 2 5 1 11 111 342
507 2 2 5 1 173 205 221
508 2 2 5 1 261 191 341
509 2 2 5 1 191 179 341
510 2 2 5 1 26 27 336
511 2 2 5 1 27 130 336
512 2 2 5 1 73 74 104
513 2 2 5 1 189 250 251
514 2 2 5 1 232 231 383
515 2 2 5 1 213 211 384
516 2 2 5 1 202 139 353
517 2 2 5 1 24 25 101
518 2 2 5 1 278 185 368
519 2 2 5 1 268 278 369
520 2 2 5 1 226 223 388
521 2 2 5 1 165 188 189
522 2 2 5 1 41 135 349
523 2 2 5 1 82 81 306
524 2 2 5 1 81 105 306
525 2 2 5 1 328 374 429
526 2 2 5 1 181 182 237
527 2 2 5 1 80 79 347
528 2 2 5 1 105 80 347
529 2 2 5 1 200 148 201
530 2 2 5 1 142 173 348
531 2 2 5 1 309 219 353
532 2 2 5 1 371 163 395
533 2 2 5 1 173 221 348
534 2 2 5 1 227 226 249
535 2 2 5 1 266 243 410
536 2 2 5 1 201 225 352
537 2 2 5 1 14 15 239
538 2 2 5 1 40 41 349
539 2 2 5 1 201 224 225
540 2 2 5 1 276 365 388
541 2 2 5 1 243 350 410
542 2 2 5 1 289 193 355
543 2 2 5 1 83 82 137
544 2 2 5 1 307 305 428
545 2 2 5 1 193 161 355
546 2 2 5 1 271 101 435
547 2 2 5 1 57 58 357
548 2 2 5 1 30 31 358
549 2 2 5 1 79 78 131
550 2 2 5 1 284 110 367
551 2 2 5 1 202 284 366
552 2 2 5 1 354 20 445
553 2 2 5 1 290 355 370
554 2 2 5 1 45 275 414
555 2 2 5 1 275 45 415
556 2 2 5 1 121 142 143
557 2 2 5 1 224 223 226
558 2 2 5 1 143 285 433
559 2 2 5 1 74 75 343
560 2 2 5 1 152 118 360
561 2 2 5 1 166 208 361
562 2 2 5 1 139 138 361
563 2 2 5 1 86 85 362
564 2 2 5 1 287 345 438
565 2 2 5 1 369 135 440
566 2 2 5 1 336 271 435
567 2 2 5 1 144 142 348
568 2 2 5 1 265 294 441
569 2 2 5 1 219 308 353
570 2 2 5 1 104 74 343
571 2 2 5 1 143 142 144
572 2 2 5 1 137 82 306
573 2 2 5 1 181 158 182
574 2 2 5 1 252 251 262
575 2 2 5 1 88 124 367
576 2 2 5 1 124 126 366
577 2 2 5 1 110 89 367
578 2 2 5 1 129 202 366
579 2 2 5 1 185 38 368
580 2 2 5 1 210 268 369
581 2 2 5 1 350 249 410
582 2 2 5 1 277 108 398
583 2 2 5 1 272 123 399
584 2 2 5 1 168 241 442
585 2 2 5 1 154 152 370
586 2 2 5 1 79 131 347
587 2 2 5 1 78 10 356
588 2 2 5 1 107 84 365
589 2 2 5 1 297 333 375
590 2 2 5 1 157 326 373
591 2 2 5 1 328 109 374
592 2 2 5 1 331 332 374
593 2 2 5 1 170 319 375
594 2 2 5 1 332 322 376
595 2 2 5 1 112 66 377
596 2 2 5 1 68 114 378
597 2 2 5 1 374 319 429
598 2 2 5 1 114 69 380
599 2 2 5 1 260 340 379
600 2 2 5 1 218 295 379
601 2 2 5 1 250 293 416
602 2 2 5 1 71 132 381
603 2 2 5 1 147 216 351
604 2 2 5 1 244 183 359
605 2 2 5 1 346 134 385
606 2 2 5 1 161 159 355
607 2 2 5 1 111 116 133
608 2 2 5 1 286 233 386
609 2 2 5 1 294 265 444
610 2 2 5 1 123 274 411
611 2 2 5 1 281 102 412
612 2 2 5 1 75 76 178
613 2 2 5 1 147 116 148
614 2 2 5 1 184 57 357
615 2 2 5 1 113 30 358
616 2 2 5 1 283 240 390
617 2 2 5 1 323 263 390
618 2 2 5 1 31 32 393
619 2 2 5 1 200 201 352
620 2 2 5 1 147 200 216
621 2 2 5 1 118 13 360
622 2 2 5 1 138 166 361
623 2 2 5 1 119 86 362
624 2 2 5 1 131 78 356
625 2 2 5 1 392 258 438
626 2 2 5 1 83 137 365
627 2 2 5 1 355 159 370
628 2 2 5 1 201 223 224
629 2 2 5 1 227 249 350
630 2 2 5 1 349 278 368
631 2 2 5 1 123 91 399
632 2 2 5 1 37 185 398
633 2 2 5 1 108 36 398
634 2 2 5 1 90 110 399
635 2 2 5 1 111 107 116
636 2 2 5 1 259 6 371
637 2 2 5 1 35 108 400
638 2 2 5 1 237 182 238
639 2 2 5 1 189 251 252
640 2 2 5 1 300 302 402
641 2 2 5 1 84 83 365
642 2 2 5 1 164 144 165
643 2 2 5 1 236 261 387
644 2 2 5 1 186 242 243
645 2 2 5 1 291 122 396
646 2 2 5 1 85 11 418
647 2 2 5 1 11 342 418
648 2 2 5 1 158 133 351
649 2 2 5 1 216 257 258
650 2 2 5 1 122 316 396
651 2 2 5 1 101 271 423
652 2 2 5 1 106 93 411
653 2 2 5 1 92 123 411
654 2 2 5 1 51 122 412
655 2 2 5 1 102 50 412
656 2 2 5 1 126 129 366
657 2 2 5 1 89 88 367
658 2 2 5 1 76 77 364
659 2 2 5 1 202 353 434
660 2 2 5 1 132 72 407
661 2 2 5 1 44 45 414
662 2 2 5 1 45 46 415
663 2 2 5 1 309 353 421
664 2 2 5 1 13 94 417
665 2 2 5 1 58 4 419
666 2 2 5 1 4 59 419
667 2 2 5 1 125 12 420
668 2 2 5 1 12 298 420
669 2 2 5 1 211 145 420
670 2 2 5 1 38 39 368
671 2 2 5 1 246 210 369
672 2 2 5 1 73 104 407
673 2 2 5 1 262 382 385
674 2 2 5 1 217 297 426
675 2 2 5 1 275 245 439
676 2 2 5 1 234 310 408
677 2 2 5 1 230 291 396
678 2 2 5 1 102 279 406
679 2 2 5 1 242 183 244
680 2 2 5 1 75 178 343
681 2 2 5 1 261 341 403
682 2 2 5 1 159 154 370
683 2 2 5 1 6 163 371
684 2 2 5 1 3 40 422
685 2 2 5 1 39 3 422
686 2 2 5 1 26 336 435
687 2 2 5 1 147 148 200
688 2 2 5 1 23 24 344
689 2 2 5 1 101 25 435
690 2 2 5 1 343 178 436
691 2 2 5 1 77 1 424
692 2 2 5 1 1 14 424
693 2 2 5 1 248 336 403
694 2 2 5 1 182 158 351
695 2 2 5 1 24 101 344
696 2 2 5 1 353 139 421
697 2 2 5 1 103 311 312
698 2 2 5 1 164 183 186
699 2 2 5 1 178 76 364
700 2 2 5 1 336 130 403
701 2 2 5 1 105 347 372
702 2 2 5 1 326 232 373
703 2 2 5 1 109 331 374
704 2 2 5 1 333 170 375
705 2 2 5 1 322 112 376
706 2 2 5 1 66 67 377
707 2 2 5 1 377 67 378
708 2 2 5 1 67 68 378
709 2 2 5 1 15 16 346
710 2 2 5 1 340 218 379
711 2 2 5 1 231 230 396
712 2 2 5 1 69 70 380
713 2 2 5 1 380 70 381
714 2 2 5 1 70 71 381
715 2 2 5 1 344 101 345
716 2 2 5 1 216 200 257
717 2 2 5 1 133 116 147
718 2 2 5 1 10 121 433
719 2 2 5 1 353 308 434
720 2 2 5 1 143 144 164
721 2 2 5 1 360 13 417
722 2 2 5 1 257 200 352
723 2 2 5 1 221 256 389
724 2 2 5 1 213 384 427
725 2 2 5 1 224 226 227
726 2 2 5 1 317 99 383
727 2 2 5 1 298 119 384
728 2 2 5 1 223 276 388
729 2 2 5 1 233 234 386
730 2 2 5 1 292 221 389
731 2 2 5 1 133 147 351
732 2 2 5 1 49 102 406
733 2 2 5 1 239 15 346
734 2 2 5 1 335 113 387
735 2 2 5 1 319 318 429
736 2 2 5 1 429 318 430
737 2 2 5 1 318 157 430
738 2 2 5 1 19 168 311
739 2 2 5 1 252 262 385
740 2 2 5 1 165 189 359
741 2 2 5 1 164 165 183
742 2 2 5 1 297 376 426
743 2 2 5 1 18 19 311
744 2 2 5 1 103 18 311
745 2 2 5 1 240 323 390
746 2 2 5 1 283 34 400
747 2 2 5 1 286 48 406
748 2 2 5 1 237 238 423
749 2 2 5 1 32 115 393
750 2 2 5 1 103 312 313
751 2 2 5 1 238 345 423
752 2 2 5 1 356 10 433
753 2 2 5 1 284 202 434
754 2 2 5 1 273 284 434
755 2 2 5 1 294 236 441
756 2 2 5 1 226 388 404
757 2 2 5 1 186 183 242
758 2 2 5 1 137 306 404
759 2 2 5 1 189 252 359
760 2 2 5 1 183 165 359
761 2 2 5 1 414 275 439
762 2 2 5 1 227 350 363
763 2 2 5 1 48 49 406
764 2 2 5 1 249 372 410
765 2 2 5 1 225 224 391
766 2 2 5 1 168 8 241
767 2 2 5 1 383 99 428
768 2 2 5 1 258 287 438
769 2 2 5 1 16 134 346
770 2 2 5 1 106 290 417
771 2 2 5 1 239 346 382
772 2 2 5 1 285 266 443
773 2 2 5 1 36 37 398
774 2 2 5 1 91 90 399
775 2 2 5 1 22 23 169
776 2 2 5 1 34 35 400
777 2 2 5 1 270 283 400
778 2 2 5 1 214 213 444
779 2 2 5 1 341 248 403
780 2 2 5 1 394 383 428
781 2 2 5 1 302 305 402
782 2 2 5 1 351 216 392
783 2 2 5 1 306 105 401
784 2 2 5 1 238 182 392
785 2 2 5 1 376 112 426
786 2 2 5 1 345 101 423
787 2 2 5 1 182 351 392
788 2 2 5 1 279 286 406
789 2 2 5 1 72 73 407
790 2 2 5 1 342 247 418
791 2 2 5 1 425 168 442
792 2 2 5 1 251 250 416
793 2 2 5 1 105 372 401
794 2 2 5 1 362 85 418
795 2 2 5 1 373 232 394
796 2 2 5 1 357 58 419
797 2 2 5 1 93 92 411
798 2 2 5 1 50 51 412
799 2 2 5 1 232 383 394
800 2 2 5 1 262 251 436
801 2 2 5 1 265 214 444
802 2 2 5 1 98 44 414
803 2 2 5 1 46 100 415
804 2 2 5 1 310 309 421
805 2 2 5 1 388 137 404
806 2 2 5 1 94 106 417
807 2 2 5 1 251 416 436
808 2 2 5 1 139 361 421
809 2 2 5 1 59 299 419
810 2 2 5 1 145 125 420
811 2 2 5 1 244 359 405
812 2 2 5 1 372 347 409
813 2 2 5 1 16 5 134
814 2 2 5 1 255 217 426
815 2 2 5 1 254 294 427
816 2 2 5 1 17 103 397
817 2 2 5 1 271 237 423
818 2 2 5 1 99 307 428
819 2 2 5 1 303 429 430
820 2 2 5 1 304 303 430
821 2 2 5 1 303 328 429
822 2 2 5 1 350 243 395
823 2 2 5 1 285 356 433
824 2 2 5 1 345 287 413
825 2 2 5 1 308 273 434
826 2 2 5 1 25 26 435
827 2 2 5 1 40 349 422
828 2 2 5 1 437 246 440
829 2 2 5 1 437 98 439
830 2 2 5 1 227 363 391
831 2 2 5 1 14 239 424
832 2 2 5 1 314 246 437
833 2 2 5 1 315 98 437
834 2 2 5 1 314 437 439
835 2 2 5 1 315 437 440
836 2 2 5 1 347 131 409
837 2 2 5 1 245 314 439
838 2 2 5 1 135 315 440
839 2 2 5 1 20 2 445
840 2 2 5 1 2 21 445
841 2 2 5 1 134 5 259
842 2 2 5 1 312 425 432
843 2 2 5 1 169 23 344
844 2 2 5 1 299 357 419
845 2 2 5 1 349 368 422
846 2 2 5 1 359 252 405
847 2 2 5 1 247 362 418
848 2 2 5 1 242 244 371
849 2 2 5 1 425 225 432
850 2 2 5 1 224 227 391
851 2 2 5 1 290 360 417
852 2 2 5 1 252 385 405
853 2 2 5 1 121 143 433
854 2 2 5 1 361 310 421
855 2 2 5 1 352 225 425
856 2 2 5 1 306 401 404
857 2 2 5 1 368 39 422
858 2 2 5 1 363 350 395
859 2 2 5 1 386 234 408
860 2 2 5 1 364 77 424
861 2 2 5 1 344 345 413
862 2 2 5 1 239 364 424
863 2 2 5 1 19 8 168
864 2 2 5 1 372 409 410
865 2 2 5 1 409 131 443
866 2 2 5 1 372 249 401
867 2 2 5 1 9 20 354
868 2 2 5 1 213 427 444
869 2 2 5 1 246 369 440
870 2 2 5 1 131 356 443
871 2 2 5 1 225 391 432
872 2 2 5 1 266 409 443
873 2 2 5 1 257 352 442
874 2 2 5 1 103 313 397
875 2 2 5 1 352 425 442
876 2 2 5 1 305 394 428
877 2 2 5 1 163 363 395
878 2 2 5 1 356 285 443
879 2 2 5 1 236 387 441
880 2 2 5 1 363 163 431
881 2 2 5 1 169 344 413
882 2 2 5 1 313 312 432
883 2 2 5 1 409 266 410
884 2 2 5 1 397 313 431
885 2 2 5 1 7 17 397
886 2 2 5 1 238 392 438
887 2 2 5 1 98 414 439
888 2 2 5 1 427 294 444
889 2 2 5 1 5 6 259
890 2 2 5 1 8 9 241
891 2 2 5 1 6 7 163
892 2 2 5 1 163 7 431
893 2 2 5 1 241 9 267
$EndElements
